#!OML:ASF H:\MichaelJackson\Top Level 1\Subject 1\Session 1\male.ASF
:FULLY-SPECIFIED
:DEGREES
412
root 17.7508 16.6824 -15.8971 4.94042 32.1601 1.11835
lowerback 3.17808 -4.19349 -0.146386
upperback 0.567155 -5.66323 -6.33554
thorax -1.82847 -2.84564 -6.20237
lowerneck -7.04337 -9.03802 9.86774
upperneck 1.48746 -13.0214 4.68653
head 1.3213 -6.30866 -0.5127
rclavicle -1.51076e-014 4.77083e-015
rhumerus -67.2958 -9.36142 -79.7753
rradius 129.144
rwrist 6.98121
rhand -26.792 -19.852
rfingers 7.12502
rthumb -0.219176 310.168
lclavicle -1.51076e-014 4.77083e-015
lhumerus -70.3724 -64.583 134.126
lradius 53.9698
lwrist 10.8048
lhand 41.4224 27.6099
lfingers 7.12502
lthumb 63.5633 37.0108
rfemur -45.5028 -24.7525 16.087
rtibia 93.7342
rfoot 18.7588 -8.63255
rtoes 23.0733
lfemur -25.5632 29.8368 -22.4864
ltibia 38.7364
lfoot -15.4643 16.1815
ltoes 3.08679
413
root 17.742 16.6741 -15.8854 5.2681 32.0039 1.41124
lowerback 2.91568 -4.09292 0.0173173
upperback 0.502222 -5.52055 -6.47274
thorax -1.76272 -2.77722 -6.46624
lowerneck -7.18165 -9.0775 9.93874
upperneck 1.49834 -13.0963 4.6663
head 1.34076 -6.3427 -0.539085
rclavicle 2.06736e-014 5.88403e-014
rhumerus -67.6374 -7.78831 -78.2963
rradius 129.344
rwrist 8.32772
rhand -32.3541 -25.9712
rfingers 7.12502
rthumb -5.59058 304.123
lclavicle 2.06736e-014 5.88403e-014
lhumerus -71.2355 -64.1634 134.962
lradius 53.8758
lwrist 10.1724
lhand 41.2769 26.9496
lfingers 7.12502
lthumb 63.4449 36.52
rfemur -43.1374 -24.3296 14.4789
rtibia 91.3745
rfoot 16.8435 -10.5576
rtoes 24.1338
lfemur -25.8655 29.7134 -22.7536
ltibia 38.9099
lfoot -15.2003 16.0643
ltoes 5.24312
414
root 17.7311 16.6652 -15.8747 5.5458 31.6102 1.78888
lowerback 2.73581 -3.93563 0.0964009
upperback 0.463171 -5.30604 -6.64531
thorax -1.70196 -2.67139 -6.71904
lowerneck -7.33622 -9.08969 10.0221
upperneck 1.51311 -13.1381 4.6375
head 1.36378 -6.35994 -0.570606
rclavicle 2.28602e-014 2.38542e-014
rhumerus -67.9202 -5.8869 -76.9173
rradius 129.447
rwrist 9.11607
rhand -36.9755 -33.1222
rfingers 7.12502
rthumb -10.051 297.138
lclavicle 2.28602e-014 2.38542e-014
lhumerus -71.5381 -63.5681 135.137
lradius 53.7688
lwrist 9.75458
lhand 40.9736 26.3901
lfingers 7.12502
lthumb 63.1972 36.309
rfemur -40.8088 -23.5977 12.8172
rtibia 88.8732
rfoot 14.7991 -12.7682
rtoes 25.6883
lfemur -26.0035 29.6028 -23.0057
ltibia 39.0894
lfoot -15.113 16.1065
ltoes 7.44002
415
root 17.7172 16.6566 -15.8642 5.75506 30.9922 2.20345
lowerback 2.62556 -3.72977 0.116446
upperback 0.44934 -5.0289 -6.83747
thorax -1.64101 -2.53288 -6.95875
lowerneck -7.50863 -9.07342 10.111
upperneck 1.53541 -13.1453 4.59327
head 1.39189 -6.35956 -0.608562
rclavicle 5.36719e-015 -4.77083e-014
rhumerus -68.1562 -3.68267 -75.6329
rradius 129.526
rwrist 9.12215
rhand -40.553 -40.6639
rfingers 7.12502
rthumb -13.5009 289.794
lclavicle 5.36719e-015 -4.77083e-014
lhumerus -71.3423 -62.8043 134.699
lradius 53.672
lwrist 9.59987
lhand 40.5171 25.9817
lfingers 7.12502
lthumb 62.8224 36.4124
rfemur -38.5372 -22.5621 11.1628
rtibia 86.2273
rfoot 12.7108 -15.1601
rtoes 28.1364
lfemur -25.9957 29.5725 -23.2041
ltibia 39.2842
lfoot -15.2034 16.2559
ltoes 9.67994
416
root 17.7 16.6483 -15.8541 5.90018 30.1839 2.60556
lowerback 2.55969 -3.48619 0.129852
upperback 0.449154 -4.70206 -7.03877
thorax -1.58252 -2.36895 -7.20476
lowerneck -7.69478 -9.03259 10.2009
upperneck 1.5722 -13.1226 4.53466
head 1.42699 -6.34373 -0.652068
rclavicle -8.46823e-014 -4.92986e-014
rhumerus -68.33 -1.24595 -74.4191
rradius 129.625
rwrist 8.23314
rhand -43.0964 -47.6341
rfingers 7.12502
rthumb -15.9511 283.003
lclavicle -8.46823e-014 -4.92986e-014
lhumerus -70.7458 -61.8864 133.748
lradius 53.6117
lwrist 9.75673
lhand 40.088 25.9301
lfingers 7.12502
lthumb 62.4681 36.8287
rfemur -36.3652 -21.2586 9.58062
rtibia 83.4317
rfoot 10.7228 -17.5454
rtoes 31.1559
lfemur -25.8941 29.6308 -23.3197
ltibia 39.5082
lfoot -15.464 16.4102
ltoes 11.9163
417
root 17.6788 16.6405 -15.8437 5.97541 29.2412 2.95543
lowerback 2.52726 -3.22048 0.17352
upperback 0.455686 -4.34567 -7.24238
thorax -1.53178 -2.19026 -7.4706
lowerneck -7.85718 -8.97023 10.2781
upperneck 1.60249 -13.0679 4.49341
head 1.45896 -6.31234 -0.68628
rclavicle 2.84262e-014 -3.02153e-014
rhumerus -68.4967 1.35891 -73.2378
rradius 129.821
rwrist 6.45007
rhand -44.723 -52.9316
rfingers 7.12502
rthumb -17.5171 277.838
lclavicle 2.84262e-014 -3.02153e-014
lhumerus -69.9183 -60.8416 132.44
lradius 53.5939
lwrist 10.1857
lhand 39.7213 26.1533
lfingers 7.12502
lthumb 62.1637 37.4418
rfemur -34.2912 -19.7371 8.11367
rtibia 80.4804
rfoot 8.94004 -19.8086
rtoes 34.5398
lfemur -25.7193 29.7433 -23.2986
ltibia 39.7745
lfoot -15.8365 16.4505
ltoes 14.335
418
root 17.6536 16.6329 -15.8324 6.00446 28.2256 3.23956
lowerback 2.4938 -2.94526 0.26895
upperback 0.461099 -3.97534 -7.44832
thorax -1.48017 -2.00482 -7.7701
lowerneck -8.00744 -8.89718 10.3603
upperneck 1.65599 -13.0001 4.45323
head 1.49677 -6.27331 -0.720902
rclavicle 1.55052e-014 -4.6118e-014
rhumerus -68.6481 4.0326 -72.0318
rradius 130.14
rwrist 3.89882
rhand -45.5103 -55.6995
rfingers 7.12502
rthumb -18.2746 275.139
lclavicle 1.55052e-014 -4.6118e-014
lhumerus -69.0307 -59.7199 130.943
lradius 53.6396
lwrist 10.863
lhand 39.3841 26.6159
lfingers 7.12502
lthumb 61.8827 38.2551
rfemur -32.3261 -18.0678 6.77602
rtibia 77.3791
rfoot 7.42198 -21.8361
rtoes 37.6541
lfemur -25.5016 29.8414 -23.1159
ltibia 40.0948
lfoot -16.2504 16.327
ltoes 16.7336
419
root 17.624 16.6245 -15.8194 5.99625 27.2005 3.44978
lowerback 2.44453 -2.67289 0.42567
upperback 0.464093 -3.60689 -7.65739
thorax -1.4224 -1.82051 -8.10989
lowerneck -8.13863 -8.82113 10.4538
upperneck 1.73588 -12.9298 4.42446
head 1.54032 -6.23145 -0.753592
rclavicle 6.32135e-014 1.59028e-014
rhumerus -68.742 6.67649 -70.7335
rradius 130.565
rwrist 0.788925
rhand -45.4634 -55.5802
rfingers 7.12502
rthumb -18.2295 275.254
lclavicle 6.32135e-014 1.59028e-014
lhumerus -68.2245 -58.5847 129.406
lradius 53.7597
lwrist 11.7474
lhand 39.0691 27.3849
lfingers 7.12502
lthumb 61.6191 39.3451
rfemur -30.4527 -16.3225 5.57532
rtibia 74.1493
rfoot 6.33662 -23.493
rtoes 39.8107
lfemur -25.236 29.846 -22.7303
ltibia 40.4712
lfoot -16.6427 15.9286
ltoes 18.872
420
root 17.5906 16.6149 -15.805 5.97441 26.2065 3.58826
lowerback 2.36128 -2.40999 0.662384
upperback 0.457388 -3.24873 -7.87387
thorax -1.35721 -1.64174 -8.5062
lowerneck -8.2325 -8.74768 10.5625
upperneck 1.83316 -12.862 4.41335
head 1.58351 -6.18979 -0.781603
rclavicle 1.63003e-014 1.1609e-013
rhumerus -68.7604 9.22051 -69.2678
rradius 131.095
rwrist -2.62151
rhand -44.4033 -52.8505
rfingers 7.12502
rthumb -17.2094 277.892
lclavicle 1.63003e-014 1.1609e-013
lhumerus -67.6002 -57.4943 127.937
lradius 53.9672
lwrist 12.7692
lhand 38.6412 28.3446
lfingers 7.12502
lthumb 61.2596 40.7309
rfemur -28.6909 -14.5771 4.50444
rtibia 70.8497
rfoot 5.75555 -24.7458
rtoes 40.6867
lfemur -24.9333 29.6725 -22.126
ltibia 40.8967
lfoot -16.9023 15.2091
ltoes 20.4089
421
root 17.5534 16.6029 -15.7883 5.95694 25.2749 3.6757
lowerback 2.23209 -2.16139 0.96094
upperback 0.43865 -2.90766 -8.10619
thorax -1.27957 -1.4716 -8.9583
lowerneck -8.28425 -8.68039 10.7025
upperneck 1.94791 -12.802 4.41224
head 1.62384 -6.15105 -0.809508
rclavicle 1.5704e-014 3.18055e-015
rhumerus -68.6598 11.6051 -67.5742
rradius 131.686
rwrist -6.07224
rhand -42.1174 -48.3356
rfingers 7.12502
rthumb -15.0083 282.228
lclavicle 1.5704e-014 3.18055e-015
lhumerus -67.2203 -56.4978 126.596
lradius 54.2829
lwrist 13.8351
lhand 38.0355 29.376
lfingers 7.12502
lthumb 60.7476 42.3467
rfemur -27.0441 -12.9112 3.54535
rtibia 67.5811
rfoot 5.70362 -25.5197
rtoes 39.6766
lfemur -24.5804 29.2657 -21.2976
ltibia 41.3462
lfoot -16.9144 14.1266
ltoes 21.104
422
root 17.5124 16.5869 -15.7696 5.96397 24.4064 3.73969
lowerback 2.04667 -1.92492 1.2822
upperback 0.408736 -2.58143 -8.3506
thorax -1.17951 -1.30817 -9.43983
lowerneck -8.3208 -8.62025 10.8795
upperneck 2.09414 -12.7549 4.39469
head 1.66835 -6.11731 -0.848609
rclavicle -2.78299e-014 6.20208e-014
rhumerus -68.3523 13.8047 -65.5822
rradius 132.266
rwrist -9.35571
rhand -38.602 -43.3172
rfingers 7.12502
rthumb -11.6198 287.025
lclavicle -2.78299e-014 6.20208e-014
lhumerus -67.0544 -55.6241 125.395
lradius 54.683
lwrist 14.838
lhand 37.2367 30.361
lfingers 7.12502
lthumb 60.0677 44.0701
rfemur -25.5312 -11.4132 2.6797
rtibia 64.4837
rfoot 6.22724 -25.6292
rtoes 36.1541
lfemur -24.1596 28.5787 -20.2601
ltibia 41.7671
lfoot -16.6501 12.6427
ltoes 20.7773
